<?xml version="1.0" encoding="iso-8859-1"?>
<!-- Uploaded to: SVG Repo, www.svgrepo.com, Generator: SVG Repo Mixer Tools -->
<svg fill="#FF10F0" height="800px" width="800px" version="1.1" id="Layer_1" xmlns="http://www.w3.org/2000/svg" xmlns:xlink="http://www.w3.org/1999/xlink" 
	 viewBox="0 0 511.999 511.999" xml:space="preserve">
<g>
	<g>
		<path d="M372.035,165.048l12.63-12.63c34.822-34.821,34.822-91.482,0-126.303c-34.82-34.821-91.479-34.821-126.302,0
			l-12.631,12.63l51.966,51.966l-16.416,16.417h-49.077V55.893L152.803,2.957l-19.815,29.723l63.493,42.329v32.119h-47.632v17.862
			c0,30.25-8.703,40.782-19.723,54.114c-12.433,15.046-27.909,33.771-27.909,76.873c0,69.457,51.979,126.997,119.079,135.777v84.52
			h-53.586v35.724h142.895v-35.724h-53.586v-84.52c67.1-8.78,119.079-66.32,119.079-135.777c0-43.102-15.476-61.827-27.91-76.873
			c-11.018-13.332-19.722-23.865-19.722-54.114v-4.51L372.035,165.048z M183.586,142.853h109.146
			c1.766,15.104,5.738,26.509,10.572,35.724h-130.29C177.849,169.363,181.821,157.957,183.586,142.853z M329.156,214.301
			c6.127,9.461,10.221,20.932,10.221,41.678c0,55.811-45.406,101.218-101.218,101.218S136.942,311.79,136.942,255.979
			c0-20.746,4.094-32.217,10.221-41.678H329.156z M298.418,40.91c19.916-9.487,44.524-5.999,60.988,10.466
			c16.468,16.467,19.955,41.073,10.466,60.988L298.418,40.91z"/>
	</g>
</g>
</svg>